<svg width="40" height="40" viewBox="0 0 40 40" fill="none" xmlns="http://www.w3.org/2000/svg">
<path d="M20.0001 15.1667L13.7222 21.4722H26.3055L20.0001 15.1667ZM20.0001 3.33341C22.287 3.33341 24.4444 3.77091 26.4722 4.64591C28.4999 5.52091 30.2686 6.713 31.778 8.22216C33.2872 9.73161 34.4792 11.5002 35.3542 13.528C36.2292 15.5558 36.6667 17.7131 36.6667 20.0001C36.6667 22.3056 36.2292 24.4723 35.3542 26.5001C34.4792 28.5279 33.2872 30.2917 31.778 31.7917C30.2686 33.2917 28.4999 34.4792 26.4722 35.3542C24.4444 36.2292 22.287 36.6667 20.0001 36.6667C17.6945 36.6667 15.5279 36.2292 13.5001 35.3542C11.4723 34.4792 9.70841 33.2917 8.20841 31.7917C6.70841 30.2917 5.52091 28.5279 4.64591 26.5001C3.77091 24.4723 3.33341 22.3056 3.33341 20.0001C3.33341 17.7131 3.77091 15.5558 4.64591 13.528C5.52091 11.5002 6.70841 9.73161 8.20841 8.22216C9.70841 6.713 11.4723 5.52091 13.5001 4.64591C15.5279 3.77091 17.6945 3.33341 20.0001 3.33341ZM20.0001 6.11133C16.1298 6.11133 12.8474 7.46313 10.153 10.1667C7.45855 12.8704 6.11133 16.1481 6.11133 20.0001C6.11133 23.8704 7.45855 27.1527 10.153 29.8472C12.8474 32.5416 16.1298 33.8888 20.0001 33.8888C23.852 33.8888 27.1298 32.5416 29.8334 29.8472C32.537 27.1527 33.8888 23.8704 33.8888 20.0001C33.8888 16.1481 32.537 12.8704 29.8334 10.1667C27.1298 7.46313 23.852 6.11133 20.0001 6.11133Z" fill="black"/>
</svg>
