<svg width="36" height="922" viewBox="0 0 36 922" fill="none" xmlns="http://www.w3.org/2000/svg">
<path d="M36 0H0V919H36V0Z" fill="white"/>
<path d="M23 545.987L21.2591 545.989L21.2565 544.014L14.9627 544.022L14.9654 545.997L13.2245 546L13.2166 540.006L14.9574 540.003L14.9601 541.979L21.2538 541.97L21.2512 539.995L22.9921 539.992L23 545.987ZM22.9464 505.395L13.1709 505.408L13.1677 503.024L20.7303 500.439C20.4 500.466 20.0206 500.499 19.5922 500.536C19.1548 500.572 18.7219 500.605 18.2934 500.633C17.856 500.651 17.4855 500.661 17.1819 500.661L13.1646 500.667L13.1623 498.868L22.9378 498.855L22.9409 501.239L15.3783 503.797C15.6639 503.77 16.0031 503.742 16.3959 503.714C16.7887 503.686 17.1859 503.663 17.5876 503.644C17.9893 503.617 18.3464 503.602 18.6589 503.602L22.944 503.596L22.9464 505.395ZM22.8923 464.448L13.1168 464.461L13.1123 461.069C13.1114 460.37 13.2401 459.761 13.4983 459.243C13.7564 458.716 14.1175 458.312 14.5813 458.029C15.0452 457.738 15.5896 457.592 16.2145 457.591C16.8305 457.59 17.3752 457.735 17.8488 458.025C18.3134 458.315 18.6755 458.718 18.935 459.236C19.1946 459.753 19.3249 460.361 19.3258 461.061L19.3276 462.409L22.8896 462.404L22.8923 464.448ZM17.5198 462.412L17.518 461.063C17.5174 460.627 17.4009 460.282 17.1685 460.028C16.9271 459.765 16.61 459.634 16.2172 459.635C15.8244 459.635 15.5121 459.767 15.2803 460.031C15.0396 460.285 14.9196 460.631 14.9201 461.067L14.9219 462.416L17.5198 462.412ZM22.968 420.396C22.9694 421.404 22.7026 422.203 22.1678 422.794C21.6329 423.376 20.9012 423.668 19.9727 423.669L13.063 423.679L13.0603 421.635L19.9567 421.626C20.3673 421.625 20.6841 421.52 20.907 421.311C21.121 421.093 21.2277 420.788 21.2272 420.398C21.2267 420.016 21.1192 419.717 20.9046 419.499C20.6812 419.282 20.3641 419.173 19.9534 419.173L13.057 419.183L13.0543 417.139L19.9641 417.13C20.8836 417.129 21.6161 417.423 22.1614 418.012C22.6978 418.593 22.9667 419.387 22.968 420.396ZM22.7815 380.553L14.8808 380.564L14.8841 383.084L13.0094 383.087L13 376.002L14.8748 376L14.8781 378.52L22.7788 378.509L22.7815 380.553Z" fill="black"/>
</svg>
