<svg width="36" height="918" viewBox="0 0 36 918" fill="none" xmlns="http://www.w3.org/2000/svg">
<path d="M36 -1H0V918H36V-1Z" fill="white"/>
<path d="M13 379.091C13 378.465 13.12 377.919 13.36 377.456C13.6089 376.992 13.9511 376.631 14.3867 376.374C14.8311 376.125 15.3467 376 15.9333 376H20.0666C20.6533 376 21.1644 376.125 21.6 376.374C22.0444 376.631 22.3866 376.992 22.6266 377.456C22.8756 377.919 23 378.465 23 379.091C23 379.727 22.8756 380.272 22.6266 380.727C22.3866 381.191 22.0444 381.547 21.6 381.796C21.1644 382.054 20.6533 382.183 20.0666 382.183H15.9333C15.3467 382.183 14.8311 382.054 14.3867 381.796C13.9511 381.547 13.6089 381.191 13.36 380.727C13.12 380.272 13 379.727 13 379.091ZM14.7333 379.091C14.7333 379.478 14.8356 379.766 15.04 379.955C15.2533 380.152 15.5511 380.251 15.9333 380.251H20.0666C20.4578 380.251 20.7556 380.156 20.96 379.967C21.1644 379.778 21.2666 379.487 21.2666 379.091C21.2666 378.696 21.1644 378.405 20.96 378.216C20.7556 378.027 20.4578 377.932 20.0666 377.932H15.9333C15.5511 377.932 15.2533 378.027 15.04 378.216C14.8356 378.413 14.7333 378.705 14.7333 379.091ZM13 411.803C13 410.85 13.2667 410.095 13.8 409.537C14.3333 408.987 15.0622 408.712 15.9866 408.712H22.8666V410.644H16C15.5911 410.644 15.2756 410.743 15.0533 410.94C14.84 411.146 14.7333 411.434 14.7333 411.803C14.7333 412.164 14.84 412.448 15.0533 412.653C15.2756 412.86 15.5911 412.963 16 412.963H22.8666V414.895H15.9866C15.0711 414.895 14.3422 414.616 13.8 414.058C13.2667 413.508 13 412.757 13 411.803ZM13.1333 443.549H21V441.166H22.8666V447.864H21V445.481H13.1333V443.549ZM13.1333 474.213H22.8666V477.421C22.8666 478.082 22.7378 478.657 22.48 479.147C22.2222 479.645 21.8622 480.027 21.4 480.293C20.9378 480.568 20.3956 480.705 19.7733 480.705C19.16 480.705 18.6178 480.568 18.1466 480.293C17.6844 480.018 17.3244 479.636 17.0666 479.147C16.8089 478.657 16.68 478.082 16.68 477.421V476.145H13.1333V474.213ZM18.48 476.145V477.421C18.48 477.833 18.5956 478.159 18.8266 478.399C19.0666 478.649 19.3822 478.773 19.7733 478.773C20.1644 478.773 20.4756 478.649 20.7066 478.399C20.9466 478.159 21.0666 477.833 21.0666 477.421V476.145H18.48ZM13 509.939C13 508.986 13.2667 508.231 13.8 507.672C14.3333 507.123 15.0622 506.848 15.9866 506.848H22.8666V508.78H16C15.5911 508.78 15.2756 508.879 15.0533 509.076C14.84 509.282 14.7333 509.57 14.7333 509.939C14.7333 510.3 14.84 510.583 15.0533 510.789C15.2756 510.995 15.5911 511.099 16 511.099H22.8666V513.031H15.9866C15.0711 513.031 14.3422 512.752 13.8 512.193C13.2667 511.644 13 510.892 13 509.939ZM13.1333 541.685H21V539.302H22.8666V546H21V543.617H13.1333V541.685Z" fill="black"/>
</svg>
